<mxfile host="app.diagrams.net" modified="2022-11-04T14:50:22.395Z" agent="5.0 (Windows NT 10.0; Win64; x64) AppleWebKit/537.36 (KHTML, like Gecko) Chrome/106.0.0.0 Safari/537.36" etag="TYvxzqfja_YzCyf5rnbc" version="20.5.1" type="github">
  <diagram id="re5oOe31TQFPjn0IlQbi" name="Страница-1">
    <mxGraphModel dx="868" dy="482" grid="1" gridSize="10" guides="1" tooltips="1" connect="1" arrows="1" fold="1" page="1" pageScale="1" pageWidth="827" pageHeight="1169" math="0" shadow="0">
      <root>
        <mxCell id="0" />
        <mxCell id="1" parent="0" />
        <mxCell id="HZVwLzSduOd7xA6oQSDT-6" value="Estate" style="whiteSpace=wrap;html=1;" vertex="1" parent="1">
          <mxGeometry x="430" y="180" width="100" height="40" as="geometry" />
        </mxCell>
        <mxCell id="HZVwLzSduOd7xA6oQSDT-8" value="" style="edgeStyle=elbowEdgeStyle;elbow=vertical;html=1;rounded=0;" edge="1" parent="1" source="HZVwLzSduOd7xA6oQSDT-6" target="HZVwLzSduOd7xA6oQSDT-7">
          <mxGeometry relative="1" as="geometry" />
        </mxCell>
        <mxCell id="HZVwLzSduOd7xA6oQSDT-7" value="Seller" style="whiteSpace=wrap;html=1;" vertex="1" parent="1">
          <mxGeometry x="430" y="280" width="100" height="40" as="geometry" />
        </mxCell>
      </root>
    </mxGraphModel>
  </diagram>
</mxfile>
